<svg xmlns="http://www.w3.org/2000/svg" width="30" height="30" viewBox="0 0 30 30">
    <g fill="#716B78" fill-rule="nonzero">
        <path d="M25.577 4.393A14.883 14.883 0 0 0 14.983 0 14.877 14.877 0 0 0 4.39 4.387c-5.46 5.46-5.856 14.184-.992 20.096-.671 1.375-1.468 2.291-2.36 2.73-.545.27-.853.86-.765 1.463.094.609.559 1.08 1.167 1.173.333.05.69.082 1.061.082 1.839 0 3.772-.634 5.385-1.745a14.999 14.999 0 0 0 7.098 1.783c4.004 0 7.764-1.557 10.594-4.387a14.888 14.888 0 0 0 4.387-10.595c0-3.997-1.556-7.763-4.387-10.594zm-1.198 19.99a13.203 13.203 0 0 1-9.396 3.891c-2.372 0-4.7-.634-6.728-1.826a.876.876 0 0 0-.427-.12.882.882 0 0 0-.52.176c-1.921 1.488-3.854 1.707-4.701 1.726 1.01-.753 1.857-1.92 2.567-3.546a.853.853 0 0 0-.145-.904c-4.644-5.247-4.4-13.242.559-18.2a13.203 13.203 0 0 1 9.395-3.892c3.553 0 6.885 1.381 9.396 3.891 5.184 5.19 5.184 13.626 0 18.804z"/>
        <path d="M18.787 8.121c-1.356 0-2.63.528-3.59 1.488l-.214.213-.213-.213a5.042 5.042 0 0 0-3.59-1.488c-1.35 0-2.624.528-3.578 1.482a5.006 5.006 0 0 0-1.48 3.583c0 1.356.533 2.624 1.487 3.584l6.772 6.772a.853.853 0 0 0 .596.25.846.846 0 0 0 .596-.244l6.791-6.766a5.038 5.038 0 0 0 1.487-3.583c0-1.356-.527-2.63-1.48-3.59a5.038 5.038 0 0 0-3.584-1.488zm2.378 7.463l-6.188 6.163-6.176-6.176a3.356 3.356 0 0 1-.991-2.391c0-.904.351-1.751.985-2.385a3.351 3.351 0 0 1 2.385-.985c.904 0 1.75.351 2.391.991l.816.816a.845.845 0 0 0 1.199 0l.81-.81a3.356 3.356 0 0 1 2.39-.991c.898 0 1.745.351 2.386.992.64.64.991 1.487.985 2.384 0 .904-.352 1.752-.992 2.392z"/>
    </g>
</svg>
