<svg xmlns="http://www.w3.org/2000/svg" width="29" height="41" viewBox="0 0 29 41">
    <g fill="none" fill-rule="nonzero">
        <path fill="#D8143A" d="M28.986 14.692C28.986 6.59 22.488 0 14.5 0S.014 6.59.014 14.692c0 7.383 5.399 13.511 12.403 14.539v2.746H9.849c-1.15 0-2.083.946-2.083 2.113s.933 2.113 2.083 2.113h2.568v2.604c0 1.167.933 2.113 2.083 2.113 1.15 0 2.084-.946 2.084-2.113v-2.604h2.567c1.15 0 2.083-.946 2.083-2.113s-.932-2.113-2.083-2.113h-2.568v-2.746c7.004-1.028 12.403-7.156 12.403-14.54zM14.5 25.158c-5.69 0-10.32-4.695-10.32-10.466C4.18 8.92 8.81 4.226 14.5 4.226S24.82 8.92 24.82 14.692c0 5.77-4.63 10.466-10.32 10.466z"/>
        <path fill="#D8143A" d="M28.986 14.692C28.986 6.59 22.488 0 14.5 0S.014 6.59.014 14.692c0 7.383 5.399 13.511 12.403 14.539v2.746H9.849c-1.15 0-2.083.946-2.083 2.113s.933 2.113 2.083 2.113h2.568v2.604c0 1.167.933 2.113 2.083 2.113 1.15 0 2.084-.946 2.084-2.113v-2.604h2.567c1.15 0 2.083-.946 2.083-2.113s-.932-2.113-2.083-2.113h-2.568v-2.746c7.004-1.028 12.403-7.156 12.403-14.54zM14.5 25.158c-5.69 0-10.32-4.695-10.32-10.466C4.18 8.92 8.81 4.226 14.5 4.226S24.82 8.92 24.82 14.692c0 5.77-4.63 10.466-10.32 10.466z"/>
        <path fill="#FF3F62" d="M14.5 0C6.512 0 .014 6.59.014 14.692l.002.21h4.17c-.002-.07-.006-.14-.006-.21C4.18 8.92 8.81 4.226 14.5 4.226S24.82 8.92 24.82 14.692c0 .07-.004.14-.006.21h4.17l.002-.21C28.986 6.59 22.488 0 14.5 0z"/>
    </g>
</svg>
