<svg xmlns="http://www.w3.org/2000/svg" width="30" height="32" viewBox="0 0 30 32">
    <path fill="#716B78" fill-rule="nonzero" d="M29.071 21.38c.631-.823.934-1.704.895-2.612-.038-1-.476-1.782-.837-2.262.419-1.065.58-2.742-.817-4.044-1.024-.954-2.762-1.381-5.17-1.263-1.693.08-3.11.401-3.167.415h-.007c-.322.059-.663.131-1.01.21-.026-.42.045-1.466.804-3.82.902-2.802.85-4.946-.167-6.38C18.526.118 16.82 0 16.318 0c-.483 0-.927.204-1.242.579-.715.848-.631 2.413-.541 3.137-.85 2.328-3.232 8.036-5.247 9.62-.039.027-.07.06-.103.093a7.079 7.079 0 0 0-1.262 1.933 2.613 2.613 0 0 0-1.274-.329H2.722c-1.481 0-2.679 1.23-2.679 2.736v10.686c0 1.513 1.204 2.736 2.679 2.736h3.927c.573 0 1.107-.184 1.545-.5l1.513.184c.231.033 4.351.566 8.581.48.766.06 1.487.092 2.157.092 1.152 0 2.156-.092 2.993-.276 1.97-.427 3.316-1.282 3.998-2.538.522-.96.522-1.914.438-2.519 1.281-1.184 1.506-2.492 1.461-3.413a4.525 4.525 0 0 0-.264-1.322zm-26.35 8.035a.951.951 0 0 1-.94-.96V17.762c0-.532.426-.96.94-.96H6.65c.521 0 .94.434.94.96V28.45c0 .532-.425.96-.94.96H2.722v.006zm24.702-8.805a.898.898 0 0 0-.116 1.072c0 .006.264.467.297 1.098.045.861-.361 1.624-1.21 2.275a.908.908 0 0 0-.297 1.013c0 .007.277.875-.174 1.697-.431.789-1.39 1.354-2.845 1.67-1.165.257-2.75.303-4.693.145h-.09c-4.14.092-8.325-.46-8.37-.467H9.92l-.65-.08c.038-.183.058-.38.058-.578V17.762c0-.282-.045-.559-.123-.815.116-.44.438-1.42 1.198-2.256 2.89-2.34 5.717-10.239 5.839-10.58a.85.85 0 0 0 .039-.441c-.11-.737-.071-1.638.083-1.908.341.007 1.262.106 1.816.888.656.927.63 2.585-.078 4.781-1.081 3.347-1.171 5.11-.315 5.886.425.388.991.408 1.403.256a17.83 17.83 0 0 1 1.12-.23l.084-.02c1.977-.44 5.517-.71 6.747.434 1.043.974.303 2.263.219 2.4a.893.893 0 0 0 .154 1.145c.007.007.683.658.715 1.532.026.586-.245 1.184-.805 1.776z"/>
</svg>
