<svg xmlns="http://www.w3.org/2000/svg" width="15" height="16" viewBox="0 0 15 16">
    <g fill="#C2BCC8" fill-rule="nonzero">
        <path d="M6.868 14.822H2.86c-1.089 0-1.972-.907-1.972-2.018V2.92C.888 1.805 1.775.9 2.86.9h4.073c.245 0 .44-.2.44-.45S7.178 0 6.933 0H2.86C1.285 0 .007 1.311.007 2.92v9.884c0 1.611 1.282 2.92 2.853 2.92h4.008c.245 0 .44-.2.44-.451 0-.25-.199-.45-.44-.45z"/>
        <path d="M14.12 7.545l-2.798-2.863a.432.432 0 0 0-.622 0 .457.457 0 0 0 0 .637l2.047 2.096H3.816c-.245 0-.44.2-.44.45s.195.45.44.45h8.931L10.7 10.411a.457.457 0 0 0 0 .637.425.425 0 0 0 .62 0l2.797-2.863a.458.458 0 0 0 .003-.64z"/>
    </g>
</svg>
