<svg width="67" height="67" viewBox="0 0 67 67" xmlns="http://www.w3.org/2000/svg"><title>839E48BF-7264-498B-934D-730A6A024711</title><g fill="none" fill-rule="evenodd"><circle fill="#30134D" cx="33.364" cy="33.47" r="33.364"/><path d="M36.015 32.754h14.512v1.16c0 2.639-.31 4.974-.932 7.006-.607 1.88-1.63 3.64-3.071 5.277-3.26 3.67-7.408 5.505-12.443 5.505-4.914 0-9.122-1.774-12.625-5.323-3.503-3.563-5.255-7.84-5.255-12.83 0-5.095 1.782-9.417 5.346-12.965 3.564-3.564 7.901-5.346 13.012-5.346 2.745 0 5.307.561 7.688 1.683 2.275 1.123 4.512 2.942 6.71 5.46l-3.775 3.617C42.3 22.16 38.79 20.243 34.65 20.243c-3.716 0-6.832 1.28-9.35 3.844-2.517 2.517-3.776 5.672-3.776 9.463 0 3.912 1.403 7.135 4.209 9.668 2.623 2.35 5.467 3.525 8.53 3.525 2.608 0 4.951-.88 7.029-2.638 2.078-1.775 3.238-3.898 3.48-6.37h-8.757v-4.981z" fill="#FFF"/></g></svg>