<svg xmlns="http://www.w3.org/2000/svg" width="34" height="34" viewBox="0 0 34 34">
    <g fill="none" fill-rule="nonzero">
        <path fill="#8034AD" d="M31.881 10.957c1.17 0 2.119-.949 2.119-2.12V2.149c0-.07-.004-.14-.01-.21-.003-.03-.01-.06-.014-.09-.005-.038-.01-.077-.017-.114-.007-.035-.017-.07-.026-.105l-.024-.096c-.01-.034-.024-.068-.036-.102l-.034-.093-.044-.095c-.015-.031-.029-.063-.045-.093-.016-.03-.035-.06-.053-.09-.018-.03-.034-.06-.053-.088-.023-.034-.05-.067-.074-.1-.017-.022-.032-.045-.05-.066a2.22 2.22 0 0 0-.297-.297c-.02-.017-.042-.031-.063-.047-.034-.026-.068-.053-.103-.076-.027-.018-.056-.034-.084-.05-.031-.02-.062-.04-.094-.057-.029-.015-.059-.028-.088-.042-.033-.016-.066-.033-.1-.047L32.605.16c-.037-.013-.073-.027-.11-.038-.028-.009-.057-.015-.085-.022-.039-.01-.077-.021-.116-.029-.032-.006-.064-.01-.096-.014-.036-.006-.072-.012-.109-.016a2.16 2.16 0 0 0-.161-.008c-.016 0-.031-.003-.047-.003h-6.69a2.119 2.119 0 0 0 0 4.238h1.575L23.574 7.46a14.655 14.655 0 0 0-8.84-2.955C6.608 4.504 0 11.114 0 19.238 0 27.36 6.61 33.97 14.733 33.97c8.124 0 14.733-6.61 14.733-14.733 0-3.285-1.08-6.321-2.904-8.774l3.2-3.2v1.574c0 1.17.949 2.119 2.12 2.119zM14.733 29.733c-5.787 0-10.495-4.708-10.495-10.495 0-5.788 4.708-10.496 10.495-10.496 5.788 0 10.496 4.708 10.496 10.496 0 5.787-4.708 10.495-10.496 10.495z"/>
        <path fill="#5A2479" d="M14.733 33.97c8.124 0 14.733-6.609 14.733-14.732l-.002-.12h-4.238l.003.12c0 5.787-4.708 10.495-10.496 10.495-5.787 0-10.495-4.708-10.495-10.495l.003-.12H0l-.001.12C0 27.362 6.61 33.97 14.733 33.97z"/>
    </g>
</svg>
