<svg width="7" height="10" viewBox="0 0 7 10" xmlns="http://www.w3.org/2000/svg" xmlns:xlink="http://www.w3.org/1999/xlink"><title>E9C13831-C739-466F-8FF6-89A60E49B71C</title><defs><path id="a" d="M3.418.167H.045v9.674H6.79V.167z"/></defs><g fill="none" fill-rule="evenodd"><mask id="b" fill="#fff"><use xlink:href="#a"/></mask><path d="M3.395.167A3.395 3.395 0 0 0 0 3.562c0 .145.012.284.03.423.29 2.65 3.146 5.708 3.146 5.708.05.056.098.092.145.118h.003l.095.03.095-.03h.003a.576.576 0 0 0 .147-.118s2.816-3.061 3.1-5.714A3.395 3.395 0 0 0 3.395.167zm0 5.58a2.185 2.185 0 0 1 0-4.368 2.185 2.185 0 0 1 0 4.369z" fill="#000" mask="url(#b)"/></g></svg>