<svg width="22" height="20" viewBox="0 0 22 20" xmlns="http://www.w3.org/2000/svg" xmlns:xlink="http://www.w3.org/1999/xlink"><title>37D39ABC-453F-428D-8114-42471F3B4FA4</title><defs><path d="M19.907 19.217l-2.131-2.23a3.836 3.836 0 0 0 1.007-2.59 3.86 3.86 0 0 0-3.856-3.855 3.86 3.86 0 0 0-3.856 3.856 3.86 3.86 0 0 0 3.856 3.855 3.83 3.83 0 0 0 2.321-.784l2.143 2.242a.356.356 0 0 0 .505.011.358.358 0 0 0 .011-.505zm-8.121-4.82a3.145 3.145 0 0 1 3.141-3.14 3.145 3.145 0 0 1 3.142 3.14 3.145 3.145 0 0 1-3.142 3.142 3.145 3.145 0 0 1-3.141-3.142z" id="a"/><mask id="c" x="-.1" y="-.1" width="9.135" height="9.479"><path fill="#fff" d="M10.971 10.442h9.135v9.479h-9.135z"/><use xlink:href="#a"/></mask><path d="M9.426 16.642l-2.283-.978V1.135L12.5 3.971v5.142a.357.357 0 1 0 .714 0V3.995l5.357-2.206v8.753a.357.357 0 1 0 .715 0V1.256a.357.357 0 0 0-.494-.33l-5.916 2.436L6.953.226 6.939.221A.369.369 0 0 0 6.885.2L6.856.192a.358.358 0 0 0-.058-.006h-.03c-.018 0-.035.004-.053.008L6.679.2c-.002 0-.004 0-.006.002L.245 2.345a.357.357 0 0 0-.245.34v15.357a.358.358 0 0 0 .47.338l6.3-2.1 2.375 1.018a.357.357 0 0 0 .281-.656zM.714 2.942L6.43 1.037v14.605L.714 17.546V2.942z" id="b"/><mask id="d" x="-.1" y="-.1" width="19.486" height="18.414"><path fill="#fff" d="M-.1.085h19.486v18.414H-.1z"/><use xlink:href="#b"/></mask></defs><g fill-rule="nonzero" fill="none"><g transform="translate(1)"><use fill="#9B9B9B" fill-rule="evenodd" xlink:href="#a"/><use stroke="#9B9B9B" mask="url(#c)" stroke-width=".2" xlink:href="#a"/></g><g transform="translate(1)"><use fill="#9B9B9B" fill-rule="evenodd" xlink:href="#b"/><use stroke="#9B9B9B" mask="url(#d)" stroke-width=".2" xlink:href="#b"/></g></g></svg>