<svg width="12" height="12" viewBox="0 0 12 12" xmlns="http://www.w3.org/2000/svg" xmlns:xlink="http://www.w3.org/1999/xlink"><title>2DA90BE2-53E3-42BD-8241-C7DFC2D9ED9B</title><defs><path id="a" d="M0 11.403h11.364V.04H0z"/></defs><g fill="none" fill-rule="evenodd" opacity=".6"><mask id="b" fill="#fff"><use xlink:href="#a"/></mask><path d="M11.243 3.026l-1.43-1.432H9.81v-.001L8.379.162a.412.412 0 0 0-.582 0L.866 7.092a.411.411 0 0 0-.112.209l-.745 3.61a.412.412 0 0 0 .486.486l3.61-.746a.411.411 0 0 0 .207-.112l6.931-6.93a.412.412 0 0 0 0-.583zm-9.837 5.19L3.19 9.998l-2.248.465.464-2.249zm2.615 1.45L1.739 7.384l6.35-6.349.849.85-3.842 3.842a.412.412 0 1 0 .582.582L9.52 2.467l.85.85-6.35 6.349z" fill="#13081E" mask="url(#b)"/></g></svg>