<svg xmlns="http://www.w3.org/2000/svg" width="30" height="32" viewBox="0 0 30 32">
    <path fill="#716B78" fill-rule="nonzero" d="M24.303 20.4c-1.826 0-3.455.87-4.496 2.215l-8.723-4.872c.204-.587.316-1.22.316-1.873 0-.659-.112-1.285-.323-1.879l8.716-4.866a5.668 5.668 0 0 0 4.504 2.229 5.686 5.686 0 0 0 5.677-5.677A5.681 5.681 0 0 0 24.297 0a5.681 5.681 0 0 0-5.677 5.677c0 .66.112 1.292.323 1.879l-8.71 4.866a5.65 5.65 0 0 0-4.503-2.229A5.686 5.686 0 0 0 .053 15.87c0 3.132 2.551 5.677 5.683 5.677a5.678 5.678 0 0 0 4.51-2.235l8.717 4.873a5.652 5.652 0 0 0-.33 1.892 5.686 5.686 0 0 0 5.677 5.677 5.681 5.681 0 0 0 5.677-5.677c0-3.132-2.552-5.677-5.684-5.677zm0-18.613A3.9 3.9 0 0 1 28.2 5.684a3.9 3.9 0 0 1-3.897 3.896 3.9 3.9 0 0 1-3.896-3.896 3.904 3.904 0 0 1 3.896-3.897zM5.736 19.767A3.9 3.9 0 0 1 1.84 15.87a3.9 3.9 0 0 1 3.896-3.896 3.9 3.9 0 0 1 3.897 3.896 3.904 3.904 0 0 1-3.897 3.897zm18.567 10.2a3.9 3.9 0 0 1-3.896-3.897 3.9 3.9 0 0 1 3.896-3.896A3.9 3.9 0 0 1 28.2 26.07a3.9 3.9 0 0 1-3.897 3.897z"/>
</svg>
